<?xml version="1.0" standalone="no"?>
<!DOCTYPE svg PUBLIC "-//W3C//DTD SVG 20010904//EN"
 "http://www.w3.org/TR/2001/REC-SVG-20010904/DTD/svg10.dtd">
<svg version="1.0" xmlns="http://www.w3.org/2000/svg"
 width="1280.000000pt" height="721.000000pt" viewBox="0 0 1280.000000 721.000000"
 preserveAspectRatio="xMidYMid meet">

<g transform="translate(0.000000,721.000000) scale(0.100000,-0.100000)"
fill="#000000" stroke="none">
<path d="M6155 6575 c-62 -31 -60 -3 -65 -670 l-5 -610 -427 -3 -426 -2 -4 89
c-3 79 -6 93 -28 116 -50 54 -58 55 -352 55 -244 0 -277 -2 -314 -19 -81 -37
-74 113 -72 -1713 l3 -1623 383 -3 382 -2 0 114 c0 79 4 116 13 122 7 5 516 7
1167 4 l1155 -5 3 -118 3 -117 382 2 382 3 3 1628 c2 1813 8 1668 -68 1707
-36 19 -58 20 -314 20 -300 0 -320 -3 -361 -58 -16 -21 -21 -46 -23 -114 l-4
-88 -419 0 -418 0 -3 603 c-3 671 -1 647 -72 681 -48 23 -455 23 -501 1z m323
-1014 c1 -563 -1 -777 -9 -787 -7 -9 -32 -14 -65 -14 -43 0 -55 4 -64 20 -7
13 -9 262 -6 782 3 420 5 767 5 771 1 4 31 7 69 5 l67 -3 3 -774z m1572 -244
c13 -7 31 -24 39 -39 14 -25 14 -29 -8 -58 -23 -32 -23 -32 -3 -53 30 -33 35
-62 17 -96 -23 -45 -43 -51 -159 -51 l-106 0 0 148 c0 82 3 152 7 155 12 12
187 7 213 -6z m-3115 -19 c47 -21 69 -92 44 -141 -18 -36 -51 -56 -101 -63
l-47 -6 -3 -47 c-3 -46 -3 -46 -43 -49 -58 -5 -62 6 -58 160 3 73 6 139 8 146
6 16 164 16 200 0z m1149 -274 c12 -30 7 -239 -6 -252 -7 -7 -33 -12 -58 -12
-36 0 -56 -7 -86 -29 -66 -49 -412 -404 -424 -434 -6 -18 -10 -177 -10 -439 0
-348 2 -415 15 -442 9 -18 111 -127 228 -243 168 -167 219 -211 246 -217 55
-10 802 -7 841 4 26 7 90 65 243 217 115 115 215 220 223 235 11 22 14 102 14
448 0 288 -3 428 -11 443 -16 31 -409 425 -441 443 -15 8 -44 14 -65 14 -63 0
-64 2 -61 146 l3 129 415 0 415 0 0 -1175 0 -1175 -1165 0 -1165 0 -3 1165
c-1 641 0 1171 3 1178 3 9 97 12 424 12 373 0 420 -2 425 -16z m-1167 -236
c21 -26 101 -288 90 -295 -9 -5 -48 -7 -87 -4 -5 1 -12 12 -16 26 -5 21 -12
25 -45 25 -32 0 -41 -5 -51 -25 -8 -18 -19 -25 -39 -25 -15 0 -33 -2 -41 -5
-37 -14 -35 12 13 153 26 79 51 147 54 152 9 15 111 12 122 -2z m3051 -105 l3
-113 42 0 c48 0 67 -13 67 -46 0 -32 -10 -36 -110 -36 -49 0 -94 3 -100 7 -11
7 -14 287 -3 299 4 4 28 6 53 4 l45 -3 3 -112z m-1063 -324 l155 -155 0 -345
0 -344 -157 -157 -158 -158 -340 0 -339 0 -158 158 -158 158 0 340 0 340 164
162 163 163 337 -3 337 -3 154 -156z m-2065 -138 c62 -88 70 -88 70 -2 l0 71
44 0 c31 0 46 -5 50 -16 3 -9 6 -76 6 -149 0 -146 -4 -156 -60 -150 -14 2 -28
4 -32 4 -4 1 -31 33 -60 71 -29 39 -56 70 -60 70 -4 0 -8 -30 -10 -67 l-3 -68
-45 0 -45 0 -3 140 c-1 76 0 145 3 153 3 9 19 12 52 10 45 -3 48 -5 93 -67z
m3190 41 c52 -26 80 -74 80 -140 0 -97 -54 -151 -152 -153 -103 -3 -158 49
-158 149 0 98 61 162 155 162 22 0 56 -8 75 -18z m40 -503 c7 -11 9 -32 5 -46
-5 -22 -9 -24 -44 -18 -74 12 -125 -38 -101 -99 13 -36 44 -49 96 -41 40 6 44
4 50 -19 3 -13 1 -34 -6 -45 -9 -18 -20 -21 -82 -21 -117 0 -168 47 -168 153
0 100 64 157 177 157 53 0 64 -3 73 -21z m-3090 -26 c0 -30 -11 -50 -60 -110
-33 -40 -60 -75 -60 -77 0 -3 28 -6 63 -8 l62 -3 3 -37 3 -38 -129 0 c-111 0
-131 2 -136 16 -10 27 4 55 62 126 30 36 55 70 56 75 0 4 -24 10 -54 13 -48 4
-55 8 -58 28 -7 49 -1 52 128 52 l120 0 0 -37z m2950 -522 c0 -28 4 -52 8 -55
5 -3 20 20 35 50 l27 54 55 0 c30 0 55 -4 55 -9 0 -6 -18 -39 -40 -74 l-41
-65 46 -75 c25 -41 45 -77 45 -81 0 -3 -26 -6 -58 -6 l-58 0 -27 55 c-15 30
-31 55 -37 55 -5 0 -10 -25 -10 -56 l0 -55 -47 3 -48 3 -3 140 c-1 76 0 145 2
152 3 8 23 13 51 13 l45 0 0 -49z m-2985 -1 c0 -34 -1 -35 -45 -40 -31 -3 -45
-10 -45 -20 0 -10 14 -17 45 -20 44 -5 45 -6 45 -40 0 -34 -1 -35 -44 -40 -65
-7 -64 -28 1 -32 l53 -3 3 -37 3 -38 -105 0 -106 0 0 155 0 156 98 -3 97 -3 0
-35z m16 -489 c36 -37 37 -70 2 -111 -22 -26 -24 -35 -15 -49 16 -22 41 -78
44 -99 3 -14 -6 -17 -51 -17 l-53 0 -17 44 c-23 62 -39 63 -43 4 l-3 -48 -47
-3 -48 -3 0 155 0 156 101 0 c98 0 101 -1 130 -29z m3083 3 c11 -4 16 -19 16
-46 0 -37 -2 -40 -22 -33 -60 19 -78 18 -78 -3 0 -14 10 -24 35 -32 42 -14 85
-63 85 -97 0 -15 -13 -38 -34 -59 -32 -32 -38 -34 -99 -34 -89 0 -97 4 -97 52
0 37 2 40 23 34 12 -4 37 -9 55 -13 50 -9 42 22 -13 48 -79 37 -96 100 -41
155 31 31 39 34 94 34 33 0 67 -3 76 -6z"/>
<path d="M7934 5245 c-8 -19 3 -35 26 -35 22 0 33 23 17 39 -15 15 -37 14 -43
-4z"/>
<path d="M7937 5133 c-12 -11 -7 -41 7 -46 7 -3 23 1 35 10 17 12 20 18 10 29
-12 15 -41 19 -52 7z"/>
<path d="M4834 5227 c-9 -25 0 -62 15 -62 22 0 38 32 25 52 -14 23 -33 28 -40
10z"/>
<path d="M4842 4659 c-12 -30 -4 -51 17 -47 10 3 15 12 13 28 -4 37 -20 47
-30 19z"/>
<path d="M6300 4377 c-143 -50 -233 -160 -260 -317 -7 -40 -10 -183 -8 -375
l3 -310 118 -3 117 -3 0 142 0 141 53 -8 c28 -4 83 -7 121 -6 127 3 250 82
306 195 100 204 28 428 -168 524 -49 24 -70 28 -152 30 -54 1 -110 -3 -130
-10z m174 -241 c49 -20 76 -64 76 -124 0 -84 -63 -139 -149 -129 -37 4 -52 13
-83 46 -32 34 -38 47 -38 85 0 37 6 52 32 82 49 55 97 67 162 40z"/>
<path d="M7921 4174 c-38 -48 -17 -124 34 -124 26 0 55 42 55 78 0 24 -37 72
-55 72 -7 0 -23 -12 -34 -26z"/>
<path d="M4830 2650 c0 -33 19 -40 40 -15 16 20 5 45 -20 45 -16 0 -20 -7 -20
-30z"/>
<path d="M8916 1656 c-48 -18 -91 -59 -119 -111 -32 -60 -30 -175 3 -235 38
-67 96 -103 174 -108 76 -5 126 9 172 51 56 48 74 94 74 184 -1 97 -26 155
-89 197 -53 35 -152 45 -215 22z m129 -119 c51 -44 51 -160 0 -204 -35 -30
-61 -29 -94 5 -52 51 -48 159 6 201 33 27 56 26 88 -2z"/>
<path d="M9929 1656 c-85 -30 -132 -86 -150 -178 -23 -113 24 -218 116 -259
45 -21 166 -26 209 -9 24 9 26 15 26 66 0 54 -1 56 -22 50 -13 -4 -41 -10 -63
-13 -86 -11 -155 81 -124 163 21 56 71 87 129 81 25 -3 53 -9 63 -12 15 -6 17
0 17 53 0 59 0 60 -31 66 -50 10 -131 6 -170 -8z"/>
<path d="M11748 1661 c-91 -30 -132 -116 -91 -194 20 -39 32 -49 106 -87 64
-34 75 -62 33 -82 -20 -8 -35 -7 -73 6 -77 27 -77 27 -74 -29 1 -27 7 -54 12
-60 5 -5 51 -11 102 -13 74 -2 99 0 127 15 48 25 80 76 80 129 0 55 -43 108
-115 140 -28 12 -57 30 -65 39 -13 15 -12 19 9 36 28 23 47 24 94 4 20 -8 41
-15 47 -15 14 0 13 97 -2 106 -18 11 -159 15 -190 5z"/>
<path d="M837 1653 c-4 -3 -7 -105 -7 -225 l0 -218 65 0 65 0 0 64 c0 39 5 67
13 73 6 6 39 13 71 16 103 10 166 86 151 183 -7 47 -34 80 -81 100 -35 15
-264 20 -277 7z m193 -101 c46 -37 18 -107 -40 -100 -22 3 -25 8 -28 52 -4 66
23 85 68 48z"/>
<path d="M1870 1657 c0 -2 -33 -101 -74 -220 -41 -119 -71 -218 -68 -221 3 -3
33 -6 68 -6 l62 0 16 40 16 40 59 0 c62 0 74 -7 85 -52 6 -27 8 -28 76 -28 39
0 70 3 70 7 0 7 -67 222 -115 368 l-23 70 -86 3 c-47 1 -86 1 -86 -1z m95
-144 c3 -16 10 -44 15 -64 17 -61 14 -69 -24 -69 -19 0 -37 4 -41 10 -7 12 26
150 36 150 5 0 11 -12 14 -27z"/>
<path d="M2750 1435 l0 -226 62 3 63 3 -2 123 c0 67 2 122 6 122 3 0 46 -56
95 -125 l89 -126 61 3 61 3 -1 220 -1 220 -59 0 -59 0 -2 -108 c0 -60 -3 -111
-6 -114 -3 -2 -45 47 -92 111 l-87 116 -64 0 -64 0 0 -225z"/>
<path d="M3777 1654 c-4 -4 -7 -27 -7 -51 l0 -43 89 0 c50 0 92 -3 95 -8 2 -4
-40 -62 -95 -129 -93 -114 -99 -124 -99 -167 l0 -46 184 0 c121 0 186 4 188
11 2 5 2 28 0 50 l-4 39 -94 0 c-54 0 -94 4 -94 10 0 5 43 64 96 131 89 114
95 124 92 163 l-3 41 -171 3 c-93 1 -173 -1 -177 -4z"/>
<path d="M4707 1654 c-4 -4 -7 -106 -7 -226 l0 -218 145 0 145 0 0 50 0 50
-74 0 c-67 0 -74 2 -79 22 -9 33 11 50 57 48 78 -3 76 -5 76 50 l0 50 -60 0
c-53 0 -62 3 -69 22 -17 46 -4 57 68 60 l66 3 0 45 0 45 -131 3 c-71 1 -133
-1 -137 -4z"/>
<path d="M5564 1647 c-2 -7 -3 -107 -2 -222 l3 -210 63 -3 62 -3 0 76 c0 68 2
75 20 75 22 0 42 -27 61 -85 7 -22 17 -46 22 -52 11 -15 147 -18 147 -5 0 24
-55 141 -77 164 l-25 27 41 39 c37 35 41 44 41 86 0 61 -12 81 -60 106 -33 17
-59 20 -165 20 -93 0 -127 -3 -131 -13z m198 -84 c26 -24 23 -69 -7 -89 -36
-24 -59 -15 -63 25 -7 75 25 105 70 64z"/>
<path d="M6994 1647 c-2 -7 -3 -107 -2 -222 l3 -210 137 -3 c122 -2 142 0 178
18 90 46 94 162 7 206 l-29 16 36 30 c31 25 36 35 36 72 0 47 -23 76 -73 95
-42 16 -286 14 -293 -2z m201 -79 c52 -24 21 -95 -38 -86 -17 2 -23 11 -25 36
-6 61 10 74 63 50z m32 -195 c18 -24 16 -40 -8 -64 -14 -14 -30 -19 -52 -17
-29 3 -32 6 -35 42 -5 59 2 70 46 63 20 -4 43 -14 49 -24z"/>
<path d="M7950 1435 l0 -226 143 3 142 3 0 45 0 45 -75 5 -75 5 -5 170 -5 170
-62 3 -63 3 0 -226z"/>
<path d="M10717 1653 c-4 -3 -7 -105 -7 -225 l0 -218 65 0 65 0 0 96 c0 63 4
94 11 92 5 -2 31 -44 57 -93 l48 -90 77 -3 c44 -2 77 1 77 7 0 5 -27 55 -60
110 -33 56 -60 108 -60 116 0 9 25 57 55 107 30 50 55 95 55 100 0 4 -33 8
-74 8 l-74 0 -46 -95 c-26 -52 -51 -95 -56 -95 -6 0 -10 40 -10 95 l0 95 -58
0 c-32 0 -62 -3 -65 -7z"/>
<path d="M5148 999 c-23 -13 -23 -37 -1 -62 17 -18 17 -19 0 -28 -14 -9 -17
-26 -17 -115 0 -98 -1 -106 -21 -111 -14 -4 -19 -12 -17 -27 5 -33 61 -34 93
-2 24 24 25 31 25 141 0 96 -3 115 -15 115 -8 0 -15 5 -15 10 0 6 4 10 10 10
5 0 15 10 21 22 10 18 8 24 -11 40 -25 21 -29 21 -52 7z"/>
<path d="M7180 865 l0 -145 39 0 c40 0 40 0 43 43 l3 42 23 -42 c21 -40 26
-43 62 -43 22 0 40 3 40 8 0 4 -12 27 -25 51 l-25 44 20 34 c28 47 26 53 -19
53 -33 0 -40 -4 -51 -30 -21 -50 -30 -34 -30 50 l0 80 -40 0 -40 0 0 -145z"/>
<path d="M7552 994 c-27 -19 -28 -40 -2 -56 24 -15 26 -28 5 -28 -12 0 -15
-17 -15 -96 l0 -95 37 3 38 3 1 88 c1 71 -1 89 -14 96 -15 9 -15 11 2 30 34
37 -11 84 -52 55z"/>
<path d="M4437 882 c-33 -34 -37 -97 -9 -132 34 -42 173 -38 159 3 -2 6 -22
11 -45 12 -23 1 -44 4 -48 7 -15 15 11 28 56 28 54 0 65 9 56 45 -17 69 -118
90 -169 37z m89 -23 c10 -17 -13 -36 -27 -22 -12 12 -4 33 11 33 5 0 12 -5 16
-11z"/>
<path d="M4760 814 l0 -94 40 0 40 0 0 64 c0 45 4 65 14 69 24 9 36 -15 36
-75 l0 -58 40 0 40 0 0 73 c0 107 -8 115 -120 115 l-90 0 0 -94z"/>
<path d="M5403 892 c-36 -27 -47 -73 -29 -116 18 -44 53 -59 120 -53 38 3 55
11 73 31 33 39 31 90 -6 127 -25 25 -37 29 -83 29 -35 0 -61 -6 -75 -18z m107
-77 c0 -33 -33 -51 -54 -29 -9 8 -16 22 -16 29 0 7 7 21 16 29 21 22 54 4 54
-29z"/>
<path d="M5730 905 c0 -3 11 -30 24 -58 56 -125 58 -158 7 -165 -16 -3 -21 -9
-19 -25 2 -17 11 -23 39 -25 57 -5 83 25 129 153 22 61 40 114 40 118 0 5 -17
7 -37 5 -34 -3 -37 -6 -47 -46 -14 -55 -28 -55 -41 0 -10 41 -12 43 -53 46
-23 2 -42 0 -42 -3z"/>
<path d="M6330 813 l0 -94 38 3 37 3 1 59 c3 102 54 98 54 -5 l0 -59 35 0 c34
0 35 1 35 43 0 66 9 89 34 85 18 -3 21 -11 24 -66 l3 -63 37 3 37 3 3 65 c3
86 -11 114 -61 118 -21 2 -45 -2 -52 -8 -9 -8 -20 -8 -32 -2 -10 5 -57 10
-105 10 l-88 0 0 -95z"/>
<path d="M6852 898 c-25 -25 -13 -38 33 -35 57 3 59 -15 3 -28 -57 -14 -80
-51 -55 -88 15 -24 21 -25 99 -24 l83 2 -1 73 c-2 96 -16 112 -94 112 -31 0
-61 -5 -68 -12z m88 -113 c0 -7 -7 -16 -15 -19 -20 -7 -33 23 -14 34 16 10 29
4 29 -15z"/>
<path d="M7780 814 l0 -94 40 0 40 0 0 64 c0 45 4 65 14 69 24 9 36 -15 36
-75 l0 -58 40 0 40 0 0 73 c0 107 -8 115 -120 115 l-90 0 0 -94z"/>
<path d="M8171 884 c-29 -37 -35 -67 -21 -109 14 -44 41 -59 91 -51 29 5 39 3
39 -7 0 -22 -44 -40 -79 -32 -24 5 -32 3 -37 -9 -24 -63 144 -60 183 3 6 10
13 65 14 122 l3 104 -86 3 c-83 3 -87 2 -107 -24z m114 -54 c7 -22 -2 -47 -20
-54 -17 -6 -45 19 -45 39 0 20 29 45 45 39 8 -3 17 -14 20 -24z"/>
</g>
</svg>
